<svg width="26" height="25" viewBox="0 0 26 25" fill="none" xmlns="http://www.w3.org/2000/svg">
<g clip-path="url(#clip0)">
<path d="M14.4844 12.9446C14.754 12.9446 14.9727 12.732 14.9727 12.4696C14.9727 12.2073 14.754 11.9946 14.4844 11.9946C14.2147 11.9946 13.9961 12.2073 13.9961 12.4696C13.9961 12.732 14.2147 12.9446 14.4844 12.9446Z" fill="#553C9A"/>
<path d="M10.5781 12.9446C10.8478 12.9446 11.0664 12.732 11.0664 12.4696C11.0664 12.2073 10.8478 11.9946 10.5781 11.9946C10.3085 11.9946 10.0898 12.2073 10.0898 12.4696C10.0898 12.732 10.3085 12.9446 10.5781 12.9446Z" fill="#553C9A"/>
<path d="M12.479 5.34473C12.4839 5.34667 13.0195 5.33086 13.0195 5.81973C13.0195 6.08164 12.8005 6.29473 12.5313 6.29473C12.3762 6.29473 12.2338 6.22538 12.1404 6.10449C11.9785 5.89473 11.6725 5.85241 11.4568 6.00992C11.2412 6.16747 11.1977 6.4652 11.3596 6.67496C11.5341 6.90106 11.7741 7.06912 12.043 7.16212V7.48223C12.043 7.74457 12.2616 7.95723 12.5313 7.95723C12.8009 7.95723 13.0195 7.74457 13.0195 7.48223V7.16303C13.5878 6.96695 13.9961 6.43898 13.9961 5.81973C13.9961 4.95684 13.2136 4.39473 12.6523 4.39473C12.6475 4.39302 12.043 4.44902 12.043 3.91973C12.043 3.65781 12.262 3.44473 12.5313 3.44473C12.6863 3.44473 12.8287 3.51408 12.9221 3.63496C13.084 3.84472 13.3901 3.88709 13.6057 3.72954C13.8213 3.57198 13.8648 3.27425 13.7029 3.06449C13.5284 2.83839 13.2884 2.67033 13.0195 2.57733V2.25723C13.0195 1.99488 12.8009 1.78223 12.5313 1.78223C12.2616 1.78223 12.043 1.99488 12.043 2.25723V2.57643C11.4747 2.77251 11.0664 3.30047 11.0664 3.91973C11.0664 4.73611 11.7739 5.34473 12.479 5.34473Z" fill="#553C9A"/>
<path d="M9.11328 16.7446C9.11328 18.0764 10.6146 19.1196 12.5312 19.1196C14.4479 19.1196 15.9492 18.0764 15.9492 16.7446C15.9492 15.4128 14.4479 14.3696 12.5312 14.3696C10.6146 14.3696 9.11328 15.4128 9.11328 16.7446ZM12.5312 15.3196C13.8546 15.3196 14.9727 15.9722 14.9727 16.7446C14.9727 17.5171 13.8546 18.1696 12.5312 18.1696C11.2079 18.1696 10.0898 17.5171 10.0898 16.7446C10.0898 15.9722 11.2079 15.3196 12.5312 15.3196Z" fill="#553C9A"/>
<path d="M18.6836 20.8296C18.9533 20.8296 19.1719 20.617 19.1719 20.3546C19.1719 20.0923 18.9533 19.8796 18.6836 19.8796C18.4139 19.8796 18.1953 20.0923 18.1953 20.3546C18.1953 20.617 18.4139 20.8296 18.6836 20.8296Z" fill="#553C9A"/>
<path d="M5.96611 20.6605C6.68032 21.4304 7.16016 22.7582 7.16016 23.9646C7.16016 24.227 7.37876 24.4396 7.64844 24.4396H10.5781C10.8478 24.4396 11.0664 24.227 11.0664 23.9646V23.3901C11.5563 23.4562 12.047 23.4896 12.5313 23.4896C13.0155 23.4896 13.5062 23.4562 13.9961 23.3901V23.9646C13.9961 24.227 14.2147 24.4396 14.4844 24.4396H17.4141C17.6837 24.4396 17.9023 24.227 17.9023 23.9646C17.9023 23.4607 17.9878 22.9174 18.1495 22.3933C18.227 22.142 18.0805 21.8772 17.8222 21.8018C17.5638 21.7264 17.2917 21.869 17.2141 22.1202C17.0749 22.5715 16.9841 23.0373 16.9461 23.4896H14.9727V22.8299C14.9727 22.5316 14.6928 22.3068 14.3916 22.3635C13.771 22.4803 13.1451 22.5396 12.5313 22.5396C11.9174 22.5396 11.2915 22.4803 10.6709 22.3635C10.369 22.3069 10.0898 22.532 10.0898 22.8299V23.4896H8.11689C8.00952 22.188 7.47373 20.8677 6.69116 20.0241C5.77568 19.0371 5.20703 17.4164 5.20703 15.7946C5.20703 14.5212 5.55557 13.193 6.21489 11.9536C6.30996 11.7749 6.27896 11.5573 6.13755 11.4105C5.5375 10.7876 5.20703 9.98286 5.20703 9.14463V8.66963H5.69531C6.42568 8.66963 7.13066 8.90209 7.73408 9.3419C7.9165 9.47485 8.16919 9.46739 8.34292 9.32385C8.6979 9.03063 9.07114 8.77413 9.45547 8.55734C10.3234 9.24405 11.402 9.61963 12.5313 9.61963C13.6606 9.61963 14.7392 9.244 15.607 8.55734C15.9914 8.77408 16.3646 9.03058 16.7196 9.32385C16.8933 9.46734 17.146 9.47485 17.3284 9.3419C17.9318 8.90209 18.6368 8.66963 19.3672 8.66963H19.8555V9.14463C19.8555 9.98286 19.525 10.7876 18.925 11.4105C18.7835 11.5573 18.7525 11.7749 18.8476 11.9536C19.5069 13.193 19.8555 14.5212 19.8555 15.7946C19.8555 16.6781 19.6904 17.567 19.378 18.3653C19.282 18.6105 19.4085 18.8849 19.6606 18.9782C19.9126 19.0716 20.1947 18.9485 20.2906 18.7033C20.6448 17.7982 20.832 16.7924 20.832 15.7946C20.832 14.4697 20.498 13.0977 19.8634 11.8071C20.4903 11.0478 20.832 10.1143 20.832 9.14463V8.19463C20.832 7.93229 20.6134 7.71963 20.3438 7.71963H19.3672C18.5504 7.71963 17.7604 7.94316 17.0608 8.36933C16.8201 8.18665 16.5723 8.01864 16.3195 7.86541C17.0209 7.02394 17.4141 5.96203 17.4141 4.86963C17.4141 2.25048 15.2236 0.119629 12.5313 0.119629C9.83887 0.119629 7.64844 2.25048 7.64844 4.86963C7.64844 5.96203 8.0416 7.02394 8.74302 7.86541C8.49019 8.01864 8.24243 8.18665 8.00166 8.36933C7.3021 7.94316 6.51211 7.71963 5.69531 7.71963H4.71875C4.44907 7.71963 4.23047 7.93229 4.23047 8.19463V9.14463C4.23047 10.1143 4.57222 11.0478 5.19912 11.8071C4.56455 13.0977 4.23047 14.4697 4.23047 15.7946C4.23047 17.6697 4.8793 19.4887 5.96611 20.6605ZM12.5313 1.06963C14.6852 1.06963 16.4375 2.77431 16.4375 4.86963C16.4375 6.99378 14.6663 8.66963 12.5313 8.66963C10.4336 8.66963 8.625 7.02646 8.625 4.86963C8.625 2.77431 10.3773 1.06963 12.5313 1.06963Z" fill="#553C9A"/>
</g>
<defs>
<clipPath id="clip0">
<rect width="25" height="24.32" fill="white" transform="translate(0.03125 0.119629)"/>
</clipPath>
</defs>
</svg>
