<svg width="256" height="256" viewBox="0 0 256 256" fill="none" xmlns="http://www.w3.org/2000/svg">
<g clip-path="url(#clip0)">
<path d="M187.61 237.951C186.3 236.348 183.939 236.109 182.335 237.419C171.153 246.551 156.209 249.593 142.358 245.556C132.965 242.818 123.035 242.818 113.641 245.556C109.539 246.752 105.385 247.329 101.282 247.329C86.9344 247.329 73.2529 240.259 64.9509 227.834C59.5144 219.699 51.9074 213.316 42.9524 209.376C25.3645 201.637 14.9535 183.604 17.0455 164.503C18.1105 154.776 16.386 144.997 12.0585 136.222C3.55952 118.988 7.17551 98.4819 21.056 85.1949C28.1235 78.4289 33.0885 69.8294 35.415 60.325C36.4365 56.149 38.0699 52.147 40.2689 48.4315C41.3229 46.6495 40.7339 44.3505 38.9519 43.296C37.1704 42.242 34.8715 42.831 33.8165 44.613C31.242 48.964 29.329 53.651 28.132 58.5435C26.146 66.6589 21.9065 74.0024 15.8715 79.7789C-0.383978 95.3399 -4.61897 119.356 5.33451 139.539C9.03 147.03 10.5025 155.381 9.5925 163.686C7.14301 186.056 19.3355 207.175 39.9334 216.238C47.5804 219.602 54.0754 225.053 58.7179 232C68.4414 246.552 84.4614 254.831 101.266 254.83C106.07 254.83 110.938 254.153 115.74 252.754C123.761 250.416 132.24 250.416 140.262 252.754C144.984 254.13 149.813 254.805 154.612 254.804C166.298 254.804 177.796 250.807 187.078 243.226C188.681 241.917 188.92 239.555 187.61 237.951Z" fill="#FAF5FF"/>
<path d="M240.129 79.7778C234.093 74.0003 229.854 66.6569 227.868 58.5424C222.519 36.6839 203.838 21.0089 181.383 19.537C173.046 18.9905 165.078 16.0905 158.341 11.15C140.193 -2.15701 115.807 -2.15651 97.6593 11.15C90.9218 16.0905 82.9538 18.9905 74.6174 19.537C63.4454 20.2689 52.6444 24.7374 44.2019 32.1189C42.6434 33.4819 42.4844 35.8504 43.8474 37.4089C45.2104 38.9674 47.5784 39.1264 49.1374 37.7634C56.4509 31.3684 65.4319 27.6524 75.1079 27.0184C84.8713 26.3784 94.2023 22.9824 102.093 17.1965C117.589 5.83398 138.412 5.83398 153.908 17.1965C161.798 22.9819 171.13 26.3784 180.893 27.0184C200.067 28.2749 216.018 41.6599 220.586 60.3244C222.911 69.8284 227.876 78.4278 234.945 85.1943C248.825 98.4813 252.441 118.988 243.942 136.222C239.615 144.997 237.89 154.776 238.955 164.503C241.048 183.604 230.636 201.637 213.048 209.376C204.424 213.171 197.013 219.27 191.618 227.015C190.434 228.713 190.852 231.05 192.551 232.234C193.204 232.689 193.951 232.907 194.69 232.907C195.875 232.907 197.041 232.347 197.77 231.301C202.378 224.687 208.705 219.479 216.067 216.239C236.665 207.176 248.858 186.057 246.409 163.688C245.499 155.382 246.972 147.032 250.667 139.539C260.619 119.355 256.384 95.3393 240.129 79.7778Z" fill="#FAF5FF"/>
<path d="M73.8954 116.755C71.8249 116.755 70.1464 118.433 70.1464 120.504V130.296C70.1464 132.366 71.8249 134.045 73.8954 134.045C75.9659 134.045 77.6444 132.366 77.6444 130.296V120.504C77.6439 118.433 75.9654 116.755 73.8954 116.755Z" fill="#FAF5FF"/>
<path d="M182.104 116.755C180.033 116.755 178.355 118.433 178.355 120.504V130.296C178.355 132.366 180.033 134.045 182.104 134.045C184.174 134.045 185.853 132.366 185.853 130.296V120.504C185.853 118.433 184.174 116.755 182.104 116.755Z" fill="#FAF5FF"/>
<path d="M112.02 137.89C113.539 139.297 115.911 139.205 117.318 137.686C119.971 134.821 123.856 133.245 127.977 133.362C132.097 133.48 135.887 135.275 138.371 138.287C139.689 139.884 142.052 140.111 143.649 138.793C145.246 137.476 145.473 135.113 144.155 133.515C140.293 128.834 134.474 126.046 128.19 125.867C121.907 125.688 115.939 128.139 111.816 132.592C110.41 134.112 110.501 136.484 112.02 137.89Z" fill="#FAF5FF"/>
<path d="M184.094 50.9668L181.18 49.6483C178.406 48.3933 175.455 47.7568 172.411 47.7568C168.531 47.7568 164.726 48.8173 161.405 50.8243L156.264 53.9318C148.722 58.4898 144.739 67.3733 146.353 76.0368C148.228 86.1073 157.025 93.4168 167.269 93.4168H175.325C187.057 93.4168 196.601 83.8723 196.601 72.1408V70.3518C196.601 62.0128 191.691 54.4038 184.094 50.9668ZM189.104 72.1398C189.104 79.7373 182.923 85.9183 175.325 85.9183H167.27C160.635 85.9188 154.939 81.1848 153.724 74.6628C152.679 69.0523 155.258 63.2993 160.142 60.3473C160.142 60.3473 165.282 57.2408 165.284 57.2398C169.135 54.9113 173.991 54.6243 178.09 56.4783L181.004 57.7963C185.925 60.0228 189.104 64.9498 189.104 70.3503V72.1398H189.104Z" fill="#FAF5FF"/>
<path d="M83.0373 55.5069C80.2378 54.0144 77.4663 52.8999 74.2348 52.8999C71.2674 52.8999 68.3739 53.7379 65.8659 55.3239L62.9779 57.1499C59.2434 59.5109 56.6704 63.3624 55.9179 67.7154C55.1649 72.0689 56.2959 76.5604 59.0204 80.0389L61.4104 83.0898C64.3989 86.9053 68.8834 89.0933 73.7138 89.0938C79.8593 89.0938 85.2988 85.6458 87.9073 80.0958L89.8393 75.9834C93.3898 68.4294 90.4018 59.4349 83.0373 55.5069ZM83.0538 72.7939L81.1208 76.9059C79.7608 79.7988 76.9223 81.5958 73.7128 81.5958C71.1664 81.5958 68.8929 80.4843 67.3119 78.4664L64.9214 75.4154C63.4809 73.5759 62.9064 71.2954 63.3049 68.9929C63.7034 66.6909 65.0099 64.7354 66.9844 63.4864L69.8724 61.6604C71.1794 60.8344 72.6873 60.3974 74.2343 60.3974C76.2048 60.3974 77.8208 61.2224 79.5093 62.1229C83.3473 64.1694 84.9043 68.8569 83.0538 72.7939Z" fill="#FAF5FF"/>
<path d="M157.001 206.005C156.386 200.563 153.06 195.923 148.104 193.593L143.992 191.66C141.889 190.671 139.65 190.17 137.338 190.17C131.54 190.17 126.243 193.347 123.515 198.462L122.75 199.897C120.106 204.855 120.329 210.885 123.332 215.634L125.158 218.522C128.044 223.087 132.997 225.812 138.405 225.812H138.406C141.93 225.812 145.264 224.66 148.047 222.48L151.098 220.09C155.409 216.712 157.616 211.447 157.001 206.005ZM146.474 214.187L143.423 216.577C141.972 217.714 140.236 218.315 138.405 218.315C135.582 218.315 132.998 216.894 131.494 214.514L129.667 211.626C128.103 209.151 127.986 206.009 129.364 203.425L130.13 201.99C131.552 199.324 134.313 197.668 137.337 197.668C138.538 197.668 139.703 197.929 140.801 198.445L144.913 200.378C147.496 201.592 149.23 204.011 149.55 206.847C149.871 209.683 148.721 212.426 146.474 214.187Z" fill="#FAF5FF"/>
<path d="M211.683 169.953C208.918 166.831 204.967 165.04 200.845 165.04C199.173 165.04 197.512 165.333 195.909 165.911L192.056 167.299C184.793 169.917 180.863 177.754 183.112 185.141L183.539 186.544C185.052 191.516 189.141 195.313 194.212 196.456L197.217 197.133C198.269 197.37 199.345 197.49 200.414 197.49C207.719 197.49 213.894 192.014 214.776 184.751L215.198 181.283C215.705 177.107 214.457 173.084 211.683 169.953ZM207.755 180.378L207.334 183.846C206.908 187.35 203.933 189.992 200.414 189.992C199.898 189.992 199.377 189.934 198.864 189.818L195.86 189.141C193.414 188.59 191.442 186.759 190.712 184.361L190.285 182.958C189.2 179.396 191.095 175.616 194.598 174.353L198.451 172.964C199.237 172.681 200.042 172.537 200.844 172.537C202.822 172.537 204.727 173.407 206.071 174.924C207.402 176.426 208 178.363 207.755 180.378Z" fill="#FAF5FF"/>
<path d="M84.5903 175.875L81.6259 168.343C78.8694 161.341 72.2379 156.466 64.7319 155.924L58.6644 155.486C58.1944 155.452 57.7174 155.434 57.2469 155.434C51.6489 155.434 46.2989 157.829 42.5694 162.007L41.4364 163.275C36.8939 168.363 35.3039 175.577 37.2879 182.103L39.1399 188.196C41.4879 195.922 48.4769 201.51 56.5314 202.099L64.8449 202.707C65.3229 202.742 65.8074 202.76 66.2859 202.76C66.2864 202.76 66.2864 202.76 66.2869 202.76C73.9799 202.76 81.0099 198.232 84.1954 191.224C86.3873 186.4 86.5313 180.805 84.5903 175.875ZM77.3684 188.122C75.3964 192.46 71.0459 195.262 66.2854 195.262C65.9884 195.262 65.6874 195.251 65.3909 195.23L57.0774 194.621C52.0919 194.256 47.7659 190.798 46.3124 186.016L44.4604 179.923C43.2329 175.884 44.2169 171.418 47.0284 168.269L48.1609 167.001C50.4699 164.416 53.7804 162.933 57.2454 162.933C57.5369 162.933 57.8324 162.943 58.1229 162.964L64.1909 163.402C68.8374 163.737 72.9419 166.755 74.6484 171.089L77.6129 178.621C78.8149 181.673 78.7264 185.136 77.3684 188.122Z" fill="#FAF5FF"/>
</g>
<defs>
<clipPath id="clip0">
<rect width="256" height="256" fill="white"/>
</clipPath>
</defs>
</svg>
