<svg width="25" height="25" viewBox="0 0 25 25" fill="none" xmlns="http://www.w3.org/2000/svg">
<path d="M24.5833 14.5835H23.3053L22.5 2.88858C22.4849 2.66962 22.3028 2.49994 22.0833 2.50024H19.5833C19.3637 2.49994 19.1816 2.66962 19.1665 2.88858L18.3612 14.5835H17.5001V12.0835C17.5001 11.8536 17.3135 11.6668 17.0835 11.6668C16.9886 11.6666 16.8968 11.699 16.8229 11.7582L13.3334 14.5498V12.0835C13.3334 11.8536 13.1469 11.6668 12.9168 11.6668C12.822 11.6666 12.7302 11.699 12.6563 11.7582L9.16677 14.5498V12.0835C9.16677 11.8536 8.98031 11.6668 8.75021 11.6668C8.65545 11.6666 8.56344 11.699 8.48974 11.7582L5.00018 14.5498V12.0835C5.00003 11.8536 4.81341 11.6669 4.58346 11.6669C4.50763 11.6669 4.43362 11.6875 4.36877 11.7264L0.202028 14.2264C0.0767522 14.3018 0 14.4372 0 14.5835V24.5835C0 24.8136 0.186616 25 0.41672 25H24.5833C24.8134 25 25 24.8136 25 24.5835V15.0002C25 14.77 24.8134 14.5835 24.5833 14.5835ZM19.9724 3.33353H21.6942L22.4702 14.5835H19.1963L19.9724 3.33353ZM14.1665 24.1668V19.1668H16.6665V24.1668H14.1665ZM24.1667 24.1668H17.5001V18.7501C17.5001 18.5201 17.3133 18.3335 17.0832 18.3335H13.7499C13.5198 18.3335 13.3332 18.5201 13.3332 18.7501V24.1668H0.833288V14.8194L4.16659 12.8194V15.4168C4.16659 15.647 4.35305 15.8335 4.58316 15.8338C4.67776 15.8338 4.76977 15.8015 4.84378 15.7422L8.33333 12.9507V15.4168C8.33333 15.647 8.51964 15.8335 8.7499 15.8338C8.84451 15.8338 8.93636 15.8015 9.01037 15.7424L12.4999 12.9508V15.4169C12.4999 15.647 12.6862 15.8338 12.9165 15.8338C13.0111 15.8338 13.103 15.8015 13.177 15.7424L16.6665 12.9508V15.0002C16.6665 15.2305 16.8531 15.4169 17.0832 15.4169H24.1664V24.1668H24.1667Z" fill="#553C9A"/>
<path d="M14.1638 0.833644C14.3153 0.91482 14.4522 1.02072 14.5689 1.14691C14.8025 1.43179 15.1351 1.61733 15.5 1.66692C15.8844 1.61794 16.2353 1.42431 16.4817 1.12524C16.5872 1.01461 16.7051 0.916804 16.8335 0.833644C16.9192 0.837458 17.1438 1.04772 17.2647 1.16064C17.4894 1.43881 17.8123 1.61993 18.1666 1.66692C18.5759 1.61504 18.9499 1.40981 19.2134 1.09274C19.3155 0.996912 19.47 0.851496 19.4999 0.833644C19.7236 0.833644 19.7749 0.907801 19.9125 1.10617C20.0934 1.44781 20.4468 1.66311 20.8334 1.66692C21.0634 1.66692 21.25 1.48031 21.25 1.25036C21.25 1.02011 21.0634 0.833644 20.8334 0.833644C20.75 0.833644 20.7338 0.827845 20.5984 0.632381C20.3772 0.23489 19.9547 -0.00818182 19.4999 0.000210517C19.1629 0.0470549 18.8562 0.220394 18.6425 0.485286C18.5042 0.615749 18.2722 0.833644 18.1842 0.835627C18.0551 0.757502 17.9373 0.662288 17.8332 0.552883C17.5827 0.247708 17.225 0.0501066 16.8333 0.000210517C16.4721 0.0494963 16.1431 0.233517 15.912 0.515193C15.7951 0.64062 15.66 0.747889 15.5116 0.833644C15.3727 0.753993 15.2464 0.654506 15.1367 0.537776C14.8931 0.242062 14.5465 0.0501066 14.1665 0.000210517C13.9366 -0.000552421 13.7492 0.185299 13.7484 0.415554C13.7477 0.645503 13.9337 0.832881 14.1638 0.833644Z" fill="#553C9A"/>
<path d="M4.58345 19.1667H2.91657C2.68646 19.1667 2.5 19.3534 2.5 19.5833V22.0833C2.5 22.3136 2.68646 22.5 2.91657 22.5H4.58345C4.8134 22.5 5.00002 22.3136 5.00002 22.0833V19.5833C5.00002 19.3534 4.8134 19.1667 4.58345 19.1667ZM4.16658 21.6667H3.33329V20.0002H4.16658V21.6667Z" fill="#553C9A"/>
<path d="M7.91676 19.1667H6.25003C6.01978 19.1667 5.83331 19.3534 5.83331 19.5833V22.0833C5.83331 22.3136 6.01978 22.5 6.25003 22.5H7.91676C8.14671 22.5 8.33333 22.3136 8.33333 22.0833V19.5833C8.33333 19.3534 8.14671 19.1667 7.91676 19.1667ZM7.49989 21.6667H6.6666V20.0002H7.49989V21.6667Z" fill="#553C9A"/>
<path d="M11.2501 19.1667H9.58335C9.35309 19.1667 9.16663 19.3534 9.16663 19.5833V22.0833C9.16663 22.3136 9.35309 22.5 9.58335 22.5H11.2501C11.48 22.5 11.6666 22.3136 11.6666 22.0833V19.5833C11.6666 19.3534 11.48 19.1667 11.2501 19.1667ZM10.8332 21.6667H9.99991V20.0002H10.8332V21.6667Z" fill="#553C9A"/>
</svg>
