<svg width="24" height="24" viewBox="0 0 24 24" fill="none" xmlns="http://www.w3.org/2000/svg">
<path d="M1.98438 19.7803H2.76563C2.86923 19.7803 2.96858 19.7402 3.04184 19.669C3.1151 19.5977 3.15625 19.501 3.15625 19.4003C3.15625 19.2995 3.1151 19.2028 3.04184 19.1316C2.96858 19.0603 2.86923 19.0203 2.76563 19.0203H1.98438C1.88077 19.0203 1.78142 19.0603 1.70816 19.1316C1.63491 19.2028 1.59375 19.2995 1.59375 19.4003C1.59375 19.501 1.63491 19.5977 1.70816 19.669C1.78142 19.7402 1.88077 19.7803 1.98438 19.7803Z" fill="#553C9A"/>
<path d="M20.7344 19.7803H21.5156C21.6192 19.7803 21.7186 19.7402 21.7918 19.669C21.8651 19.5977 21.9063 19.501 21.9063 19.4003C21.9063 19.2995 21.8651 19.2028 21.7918 19.1316C21.7186 19.0603 21.6192 19.0203 21.5156 19.0203H20.7344C20.6308 19.0203 20.5314 19.0603 20.4582 19.1316C20.3849 19.2028 20.3438 19.2995 20.3438 19.4003C20.3438 19.501 20.3849 19.5977 20.4582 19.669C20.5314 19.7402 20.6308 19.7803 20.7344 19.7803Z" fill="#553C9A"/>
<path d="M1.98438 22.06H2.76563C2.86923 22.06 2.96858 22.02 3.04184 21.9487C3.1151 21.8775 3.15625 21.7808 3.15625 21.68C3.15625 21.5793 3.1151 21.4826 3.04184 21.4113C2.96858 21.3401 2.86923 21.3 2.76563 21.3H1.98438C1.88077 21.3 1.78142 21.3401 1.70816 21.4113C1.63491 21.4826 1.59375 21.5793 1.59375 21.68C1.59375 21.7808 1.63491 21.8775 1.70816 21.9487C1.78142 22.02 1.88077 22.06 1.98438 22.06Z" fill="#553C9A"/>
<path d="M11.3594 19.7803H12.1406C12.2442 19.7803 12.3436 19.7402 12.4168 19.669C12.4901 19.5977 12.5312 19.501 12.5312 19.4003C12.5312 19.2995 12.4901 19.2028 12.4168 19.1316C12.3436 19.0603 12.2442 19.0203 12.1406 19.0203H11.3594C11.2558 19.0203 11.1564 19.0603 11.0832 19.1316C11.0099 19.2028 10.9688 19.2995 10.9688 19.4003C10.9688 19.501 11.0099 19.5977 11.0832 19.669C11.1564 19.7402 11.2558 19.7803 11.3594 19.7803Z" fill="#553C9A"/>
<path d="M11.3594 22.06H12.1406C12.2442 22.06 12.3436 22.02 12.4168 21.9487C12.4901 21.8775 12.5312 21.7808 12.5312 21.68C12.5312 21.5793 12.4901 21.4826 12.4168 21.4113C12.3436 21.3401 12.2442 21.3 12.1406 21.3H11.3594C11.2558 21.3 11.1564 21.3401 11.0832 21.4113C11.0099 21.4826 10.9688 21.5793 10.9688 21.68C10.9688 21.7808 11.0099 21.8775 11.0832 21.9487C11.1564 22.02 11.2558 22.06 11.3594 22.06Z" fill="#553C9A"/>
<path d="M20.7344 22.06H21.5156C21.6192 22.06 21.7186 22.02 21.7918 21.9487C21.8651 21.8775 21.9063 21.7808 21.9063 21.68C21.9063 21.5793 21.8651 21.4826 21.7918 21.4113C21.7186 21.3401 21.6192 21.3 21.5156 21.3H20.7344C20.6308 21.3 20.5314 21.3401 20.4582 21.4113C20.3849 21.4826 20.3438 21.5793 20.3438 21.68C20.3438 21.7808 20.3849 21.8775 20.4582 21.9487C20.5314 22.02 20.6308 22.06 20.7344 22.06Z" fill="#553C9A"/>
<path d="M6.4581 12.2023C6.43945 12.1558 6.41158 12.1134 6.37606 12.0774C6.34055 12.0414 6.29809 12.0125 6.25111 11.9925C6.20413 11.9724 6.15355 11.9616 6.10226 11.9605C6.05098 11.9595 5.99998 11.9683 5.95219 11.9864L5.22436 12.2627C5.17657 12.2808 5.13291 12.308 5.0959 12.3425C5.05888 12.3771 5.02922 12.4184 5.00861 12.4641C4.988 12.5098 4.97685 12.559 4.97579 12.6089C4.97473 12.6588 4.98379 12.7084 5.00244 12.7549C5.02109 12.8014 5.04897 12.8439 5.08449 12.8799C5.12001 12.9159 5.16247 12.9447 5.20945 12.9648C5.25643 12.9848 5.30702 12.9957 5.35831 12.9967C5.4096 12.9977 5.4606 12.9889 5.50839 12.9708L6.23617 12.6945C6.28397 12.6763 6.32762 12.6492 6.36463 12.6147C6.40165 12.5801 6.43131 12.5388 6.45192 12.4931C6.47253 12.4474 6.48368 12.3982 6.48474 12.3483C6.4858 12.2984 6.47675 12.2488 6.4581 12.2023Z" fill="#553C9A"/>
<path d="M22.9697 9.52357C23.0202 9.07 22.8922 8.61467 22.6114 8.24926C22.3306 7.88386 21.9179 7.63554 21.4564 7.55431C21.1542 7.10747 20.7426 6.74066 20.2586 6.48684C19.7746 6.23302 19.2334 6.10014 18.6836 6.10014C18.1338 6.10014 17.5925 6.23302 17.1086 6.48684C16.6246 6.74066 16.213 7.10747 15.9108 7.55431C15.6911 7.59309 15.4805 7.67047 15.2894 7.78264L16.8021 3.95657C16.8211 3.90863 16.8298 3.85746 16.8279 3.80613C16.8259 3.75481 16.8133 3.7044 16.7908 3.65795C16.7683 3.61151 16.7363 3.56999 16.6968 3.5359C16.6573 3.50181 16.6111 3.47586 16.561 3.45962L15.3892 3.07962C15.2938 3.04865 15.1898 3.05466 15.0988 3.0964C15.0079 3.13815 14.937 3.21241 14.9009 3.30373L14.4844 4.35756V0.780146C14.4844 0.679364 14.4432 0.58271 14.37 0.511446C14.2967 0.440182 14.1974 0.400146 14.0938 0.400146H12.5312C12.4276 0.400146 12.3283 0.440182 12.255 0.511446C12.1818 0.58271 12.1406 0.679364 12.1406 0.780146V4.35775L11.724 3.30377C11.6879 3.21245 11.617 3.13818 11.5261 3.09642C11.4351 3.05467 11.3311 3.04865 11.2357 3.07962L10.0638 3.45962C10.0137 3.47586 9.96755 3.50181 9.92806 3.5359C9.88857 3.56999 9.8566 3.61151 9.83406 3.65795C9.81153 3.7044 9.79891 3.75481 9.79697 3.80613C9.79503 3.85746 9.8038 3.90863 9.82275 3.95657L11.4961 8.18882C11.6643 8.61314 11.7504 9.06405 11.75 9.51882V9.94817C11.62 9.99665 11.4939 10.0546 11.3728 10.1216L11.2399 9.86305C11.0707 9.53084 10.8091 9.25142 10.4849 9.05648C10.1606 8.86154 9.78676 8.75888 9.40561 8.76015H8.47852C8.41193 8.76015 8.34645 8.77671 8.2883 8.80825C8.23014 8.8398 8.18124 8.88528 8.14624 8.94038C8.11123 8.99548 8.09129 9.05837 8.0883 9.12308C8.08531 9.18779 8.09937 9.25217 8.12915 9.3101L8.45142 9.9371C8.62067 10.2693 8.88225 10.5488 9.20648 10.7438C9.53071 10.9387 9.90462 11.0414 10.2858 11.0401H10.3912C10.2462 11.2676 10.1369 11.5148 10.0669 11.7736C9.91382 11.6223 9.72952 11.5043 9.52614 11.4274C9.32277 11.3504 9.10493 11.3162 8.887 11.3271C8.66906 11.338 8.45597 11.3937 8.26177 11.4905C8.06758 11.5874 7.89668 11.7232 7.76035 11.8889L7.66865 12.0005C7.57823 12.1106 7.49635 12.2271 7.42368 12.349L7.07593 11.1788C6.91152 10.6285 6.55534 10.1509 6.06851 9.82818C6.40963 9.57894 6.65753 9.22794 6.77434 8.82878C6.89115 8.42962 6.87046 8.00423 6.71543 7.61758C6.55722 7.22904 6.27257 6.90159 5.90499 6.6853C5.53741 6.469 5.10713 6.37576 4.67993 6.41982C4.35737 6.15164 3.96604 5.97363 3.54767 5.90479C3.12929 5.83595 2.69955 5.87884 2.30426 6.02891C1.90898 6.17897 1.56297 6.43058 1.30312 6.7569C1.04327 7.08323 0.879321 7.47203 0.82876 7.88187C0.483886 8.13105 0.232339 8.48319 0.112542 8.88452C-0.00725402 9.28584 0.0112866 9.71428 0.165332 10.1044C0.319342 10.4918 0.600045 10.8192 0.964178 11.036C1.32831 11.2529 1.75566 11.3473 2.18037 11.3046C2.04711 11.8628 2.11765 12.4486 2.37988 12.9617L3.73276 15.6001H0.421875C0.318275 15.6001 0.218918 15.6402 0.145661 15.7114C0.072405 15.7827 0.03125 15.8794 0.03125 15.9801V22.8201C0.03125 22.9209 0.072405 23.0176 0.145661 23.0888C0.218918 23.1601 0.318275 23.2001 0.421875 23.2001H23.0781C23.1817 23.2001 23.2811 23.1601 23.3543 23.0888C23.4276 23.0176 23.4688 22.9209 23.4688 22.8201V15.9801C23.4688 15.8794 23.4276 15.7827 23.3543 15.7114C23.2811 15.6402 23.1817 15.6001 23.0781 15.6001H20.6318C20.6763 15.3324 20.7678 15.0741 20.9024 14.8366C20.9438 14.8387 20.9854 14.8401 21.0272 14.8401C21.4118 14.8401 21.7905 14.7479 22.1299 14.5718C22.4692 14.3957 22.7589 14.1411 22.9732 13.8304C23.1875 13.5198 23.32 13.1625 23.3589 12.7903C23.3978 12.4181 23.342 12.0422 23.1963 11.6959C23.4078 11.3595 23.5001 10.9649 23.4591 10.5726C23.4181 10.1803 23.2462 9.81179 22.9695 9.52357H22.9697ZM18.7143 14.9647C18.6574 14.6963 18.5642 14.4365 18.4373 14.1919C18.5214 14.1529 18.6037 14.1101 18.6836 14.0631C18.7792 14.1191 18.8782 14.1694 18.98 14.214C18.8589 14.4522 18.7696 14.7045 18.7143 14.9647ZM17.6817 14.4289C17.8908 14.7857 18.0005 15.1894 18 15.6001H17.5858C17.5439 15.2676 17.4471 14.9438 17.2992 14.6412C17.4333 14.5823 17.5614 14.5112 17.6817 14.4289ZM16.524 14.8333C16.6596 15.0717 16.7518 15.3311 16.7964 15.6001H15.634C15.5776 15.3411 15.4637 15.0971 15.3003 14.8853L14.8836 14.3446C15.2971 14.6658 15.8107 14.8405 16.3398 14.8401C16.4017 14.8401 16.4631 14.8379 16.524 14.8333ZM13.2578 15.2914C13.5013 14.9116 13.6495 14.4814 13.6905 14.0355C13.7315 13.5897 13.6641 13.1407 13.4938 12.7249L14.0342 11.4294C14.0722 11.5217 14.1179 11.6109 14.1709 11.6959C13.9683 12.1774 13.941 12.7118 14.0938 13.2104V14.4601C14.0938 14.5424 14.1212 14.6224 14.1719 14.6881L14.6753 15.3414C14.7363 15.4206 14.7856 15.5077 14.8218 15.6002H13.0591L13.2578 15.2914ZM15.4962 3.91548L15.9262 4.05489L14.3996 7.91593C14.2316 8.34071 14.1318 8.78808 14.1035 9.24237L12.9893 11.9131L12.9694 11.8889C12.8482 11.7415 12.6996 11.6175 12.5312 11.5236V10.9501L15.4962 3.91548ZM12.9219 6.29015V1.16015H13.7031V6.18679C13.7032 6.22289 13.7085 6.25879 13.719 6.29342L13.3125 7.32185L12.92 6.3291C12.9213 6.31615 12.9219 6.30315 12.9219 6.29015ZM10.6988 4.05489L11.1285 3.91548L12.7198 7.94082C12.7815 8.0973 12.8292 8.25869 12.8623 8.42318L12.5156 9.15943C12.4808 8.73353 12.3831 8.31473 12.2254 7.91598L10.6988 4.05489ZM11.75 10.8672V11.3255C11.4906 11.3276 11.2359 11.3933 11.0095 11.5166C11.1844 11.2132 11.4403 10.9613 11.75 10.7875V10.8672ZM9.15029 9.59743L9.11055 9.52015H9.40561C9.64155 9.51936 9.873 9.58291 10.0737 9.70358C10.2744 9.82425 10.4363 9.99722 10.5411 10.2029L10.5809 10.2801H10.2858C10.0499 10.2809 9.81841 10.2174 9.61771 10.0967C9.41701 9.97604 9.25508 9.80307 9.15029 9.59743ZM8.27866 12.4753L8.37041 12.3637C8.44538 12.2726 8.54139 12.1999 8.65065 12.1517C8.7599 12.1034 8.87931 12.0809 8.99919 12.086C9.11906 12.091 9.23602 12.1235 9.34057 12.1808C9.44512 12.2381 9.5343 12.3185 9.60088 12.4157C9.68471 12.538 9.79828 12.6383 9.93152 12.7076C10.0648 12.777 10.2135 12.8133 10.3647 12.8133C10.5158 12.8133 10.6646 12.777 10.7978 12.7076C10.9311 12.6383 11.0446 12.538 11.1285 12.4157C11.2222 12.279 11.3599 12.1764 11.52 12.124C11.6801 12.0716 11.8535 12.0723 12.0131 12.1259C12.0156 12.1267 12.018 12.1277 12.0205 12.1285C12.1537 12.1747 12.271 12.2562 12.3592 12.3638L12.4509 12.4753C12.7286 12.8136 12.8916 13.2274 12.9174 13.6596C12.9433 14.0919 12.8306 14.5213 12.5951 14.8886L12.1381 15.6001H8.59165L8.13447 14.8886C7.89892 14.5212 7.78629 14.0919 7.81212 13.6596C7.83794 13.2274 8.00095 12.8136 8.27866 12.4753ZM7.03164 13.6343C7.03076 13.6317 7.02998 13.6292 7.02905 13.6266L7.03184 13.6297C7.03174 13.6314 7.03174 13.6329 7.03164 13.6345V13.6343ZM0.893115 9.82795C0.792616 9.57398 0.788266 9.29352 0.880845 9.03672C0.973424 8.77992 1.15689 8.56354 1.39844 8.42627C1.45623 8.39391 1.50455 8.3477 1.53879 8.29203C1.57303 8.23637 1.59205 8.1731 1.59404 8.10826C1.60301 7.8099 1.70205 7.5207 1.87883 7.27673C2.05561 7.03276 2.3023 6.84481 2.58814 6.7363C2.87399 6.6278 3.18634 6.60355 3.48626 6.66657C3.78617 6.7296 4.06039 6.87711 4.27471 7.09071C4.32133 7.13709 4.37938 7.17108 4.44333 7.18946C4.50728 7.20783 4.575 7.20998 4.64004 7.19569C4.91331 7.13753 5.19894 7.17584 5.44584 7.30376C5.69274 7.43169 5.88481 7.64088 5.9877 7.89394C6.05243 8.05375 6.07907 8.22576 6.06562 8.39703C6.05217 8.5683 5.99899 8.73438 5.91006 8.88277C5.82113 9.03116 5.69877 9.15801 5.55219 9.25378C5.40561 9.34955 5.23862 9.41175 5.06377 9.43569C5.05015 9.43351 5.03662 9.43094 5.023 9.4288C5.10529 9.05517 5.28689 8.70906 5.54966 8.42503C5.58456 8.3881 5.6116 8.34481 5.62922 8.29766C5.64683 8.25051 5.65468 8.20043 5.6523 8.15032C5.64992 8.1002 5.63736 8.05104 5.61535 8.00568C5.59334 7.96031 5.56231 7.91962 5.52406 7.88598C5.48581 7.85233 5.44108 7.82639 5.39247 7.80965C5.34386 7.7929 5.29232 7.78569 5.24082 7.78842C5.18933 7.79115 5.1389 7.80377 5.09245 7.82556C5.04599 7.84735 5.00443 7.87787 4.97017 7.91536C4.60195 8.31355 4.35213 8.80175 4.24751 9.32758C4.1845 9.3331 4.12383 9.35348 4.07075 9.38696L3.52026 8.01478C3.50162 7.96829 3.47374 7.92582 3.43822 7.88981C3.40271 7.8538 3.36025 7.82495 3.31327 7.80491C3.26629 7.78486 3.21572 7.77401 3.16443 7.77298C3.11314 7.77194 3.06215 7.78075 3.01436 7.79889C2.96657 7.81703 2.92292 7.84415 2.8859 7.8787C2.84888 7.91325 2.81922 7.95455 2.79862 8.00025C2.77801 8.04595 2.76686 8.09515 2.76579 8.14505C2.76473 8.19494 2.77379 8.24455 2.79243 8.29104L3.34292 9.66322C3.28058 9.67362 3.22176 9.69859 3.17153 9.73599C2.72842 9.41818 2.20473 9.2237 1.65664 9.1734C1.60555 9.16883 1.55404 9.1741 1.50505 9.1889C1.45606 9.2037 1.41054 9.22774 1.3711 9.25965C1.33166 9.29156 1.29906 9.33072 1.27517 9.37489C1.25129 9.41905 1.23658 9.46736 1.23188 9.51706C1.22719 9.56676 1.23261 9.61687 1.24782 9.66453C1.26303 9.71219 1.28775 9.75646 1.32055 9.79484C1.35335 9.8332 1.39361 9.86491 1.43901 9.88815C1.48441 9.91139 1.53407 9.9257 1.58516 9.93026C1.97624 9.96604 2.35083 10.101 2.67153 10.3217C2.66284 10.3322 2.65474 10.3431 2.64624 10.3537C2.50093 10.4512 2.33479 10.5154 2.1603 10.5415C1.98582 10.5676 1.80753 10.5548 1.63882 10.5043C1.47012 10.4537 1.31539 10.3666 1.18627 10.2495C1.05715 10.1324 0.956985 9.98831 0.89331 9.82814L0.893115 9.82795ZM4.32461 15.0518L4.98477 14.8012C5.03273 14.7832 5.07658 14.7561 5.11377 14.7216C5.15097 14.6871 5.1808 14.6457 5.20154 14.6C5.22227 14.5542 5.23352 14.5049 5.23463 14.4549C5.23573 14.4049 5.22668 14.3551 5.20799 14.3085C5.18929 14.2619 5.16132 14.2194 5.12569 14.1833C5.09005 14.1473 5.04745 14.1184 5.00032 14.0984C4.95319 14.0784 4.90247 14.0676 4.85106 14.0668C4.79965 14.0659 4.74856 14.0749 4.70073 14.0932L3.97446 14.3689L3.62427 13.6859L4.05283 13.5232C4.14935 13.4866 4.22695 13.4141 4.26856 13.3218C4.31018 13.2295 4.3124 13.1249 4.27473 13.031C4.23707 12.9371 4.1626 12.8617 4.06772 12.8212C3.97284 12.7807 3.86532 12.7785 3.7688 12.8152L3.27407 13.003L3.07876 12.6223C2.96907 12.411 2.90642 12.1796 2.8949 11.9431C2.88338 11.7067 2.92325 11.4705 3.01191 11.2501C3.06049 11.1275 3.1233 11.0108 3.19912 10.9021C3.3445 10.7901 3.47257 10.6584 3.57939 10.5109C3.71023 10.4139 3.85437 10.3352 4.00762 10.2771H4.00835L4.00913 10.2767C4.16242 10.2185 4.32332 10.1815 4.48716 10.1666C4.6683 10.2047 4.85412 10.2172 5.03892 10.2038C5.17045 10.2338 5.29802 10.2783 5.41914 10.3365C5.63781 10.4402 5.83152 10.5877 5.98765 10.7692C6.14377 10.9507 6.25879 11.1622 6.32519 11.3898L6.94692 13.4819C6.94937 13.4902 6.95249 13.4982 6.95552 13.5062C6.90267 13.4475 6.83253 13.4061 6.75462 13.3875C6.67672 13.3689 6.59482 13.3741 6.52007 13.4024L6.15615 13.5406C6.05964 13.5772 5.98203 13.6497 5.94041 13.742C5.89879 13.8343 5.89657 13.9389 5.93423 14.0327C5.97189 14.1266 6.04634 14.2021 6.14122 14.2426C6.2361 14.2831 6.34362 14.2853 6.44014 14.2486L6.80405 14.1105C6.85618 14.0907 6.90331 14.0602 6.94224 14.0212C6.98118 13.9821 7.011 13.9353 7.02969 13.884C7.04753 14.3827 7.2 14.8681 7.47178 15.2914L7.67012 15.6001H4.60581L4.32461 15.0518ZM22.6875 20.1601H0.8125V18.6401H22.6875V20.1601ZM22.6875 22.4401H0.8125V20.9201H22.6875V22.4401ZM22.6875 17.8801H0.8125V16.3601H22.6875V17.8801ZM19.8426 15.6001H19.4284C19.4281 15.2009 19.5318 14.808 19.7298 14.4582C19.8526 14.5382 19.9829 14.6066 20.1189 14.6625C19.9768 14.959 19.8835 15.2754 19.8426 15.6001ZM22.4444 11.4168C22.3952 11.4751 22.365 11.5464 22.3576 11.6215C22.3502 11.6966 22.3659 11.7722 22.4028 11.8385C22.5311 12.0701 22.5954 12.3301 22.5895 12.5931C22.5835 12.8561 22.5075 13.1131 22.3689 13.339C22.2303 13.5649 22.0338 13.7519 21.7987 13.8818C21.5635 14.0117 21.2978 14.0801 21.0273 14.0801C20.6799 14.0812 20.3422 13.9684 20.0687 13.7599C20.0138 13.7183 19.9484 13.6917 19.8794 13.6829C19.5306 13.6382 19.1996 13.5068 18.9182 13.3013C18.8506 13.2519 18.7682 13.2252 18.6836 13.2252C18.599 13.2252 18.5166 13.2519 18.449 13.3013C18.1676 13.5068 17.8366 13.6382 17.4878 13.6829C17.4188 13.6917 17.3534 13.7183 17.2985 13.7599C17.025 13.9684 16.6873 14.0812 16.3398 14.0801C16.0694 14.0801 15.8036 14.0117 15.5685 13.8818C15.3333 13.7519 15.1369 13.5649 14.9983 13.339C14.8596 13.1131 14.7837 12.8561 14.7777 12.5931C14.7718 12.3301 14.8361 12.0701 14.9644 11.8385C15.0013 11.7722 15.017 11.6966 15.0096 11.6215C15.0022 11.5464 14.972 11.4751 14.9228 11.4168C14.7838 11.2518 14.7001 11.0493 14.683 10.8366C14.6658 10.6239 14.7162 10.4113 14.8271 10.2272L14.8281 10.2256C14.891 10.1216 14.972 10.0289 15.0673 9.95173C15.1232 9.9065 15.1649 9.84702 15.1879 9.77998C15.2109 9.71293 15.2142 9.64098 15.1975 9.57221C15.1612 9.42444 15.1586 9.27076 15.1897 9.12189C15.2208 8.97302 15.2849 8.83254 15.3775 8.71025C15.4702 8.58796 15.5892 8.48681 15.7261 8.41385C15.8631 8.34089 16.0148 8.29787 16.1706 8.28781C16.2347 8.2837 16.2968 8.26428 16.3514 8.23125C16.4059 8.19823 16.4512 8.15262 16.4833 8.09847C16.7058 7.7221 17.0264 7.40944 17.4127 7.19203C17.7991 6.97462 18.2375 6.86015 18.6838 6.86015C19.1301 6.86015 19.5685 6.97462 19.9548 7.19203C20.3412 7.40944 20.6617 7.7221 20.8842 8.09847C20.9163 8.15262 20.9617 8.19823 21.0162 8.23125C21.0708 8.26428 21.1329 8.2837 21.197 8.28781C21.3528 8.29786 21.5045 8.34086 21.6414 8.41381C21.7784 8.48676 21.8974 8.58791 21.99 8.71019C22.0827 8.83247 22.1468 8.97294 22.1779 9.12181C22.209 9.27067 22.2064 9.42435 22.1701 9.57211C22.1534 9.6409 22.1567 9.71287 22.1797 9.77993C22.2026 9.847 22.2444 9.90649 22.3002 9.95173C22.4216 10.0497 22.5192 10.1725 22.5861 10.3114C22.653 10.4502 22.6877 10.6018 22.6875 10.7551C22.6885 10.9966 22.6025 11.2307 22.4444 11.4168Z" fill="#553C9A"/>
<path d="M18.6836 7.62012C18.3605 7.62042 18.0455 7.71799 17.7816 7.89943C17.5178 8.08086 17.3182 8.33728 17.2101 8.63348C17.1756 8.72851 17.1813 8.83298 17.226 8.92392C17.2706 9.01487 17.3506 9.08482 17.4483 9.11841C17.5459 9.152 17.6533 9.14646 17.7468 9.10301C17.8403 9.05957 17.9122 8.98178 17.9468 8.88675C18.0007 8.73857 18.1005 8.61029 18.2325 8.51957C18.3644 8.42884 18.522 8.38013 18.6836 8.38013C18.8452 8.38013 19.0028 8.42884 19.1348 8.51957C19.2667 8.61029 19.3665 8.73857 19.4205 8.88675C19.4376 8.9338 19.464 8.97712 19.4983 9.01423C19.5326 9.05133 19.5741 9.0815 19.6204 9.10301C19.6667 9.12452 19.7169 9.13696 19.7681 9.1396C19.8193 9.14224 19.8706 9.13504 19.919 9.11841C19.9673 9.10178 20.0119 9.07605 20.05 9.04268C20.0881 9.00931 20.1192 8.96895 20.1413 8.92392C20.1634 8.87889 20.1762 8.83007 20.1789 8.78023C20.1816 8.7304 20.1742 8.68053 20.1571 8.63348C20.049 8.33728 19.8494 8.08086 19.5856 7.89943C19.3218 7.71799 19.0067 7.62042 18.6836 7.62012Z" fill="#553C9A"/>
<path d="M16.7305 10.2803C16.8341 10.2803 16.9334 10.2402 17.0067 10.169C17.0799 10.0977 17.1211 10.001 17.1211 9.90026C17.1211 9.79948 17.0799 9.70283 17.0067 9.63156C16.9334 9.5603 16.8341 9.52026 16.7305 9.52026C16.4197 9.52026 16.1216 9.64037 15.9018 9.85416C15.6821 10.068 15.5586 10.3579 15.5586 10.6603C15.5586 10.9626 15.6821 11.2526 15.9018 11.4664C16.1216 11.6802 16.4197 11.8003 16.7305 11.8003C16.8341 11.8003 16.9334 11.7602 17.0067 11.689C17.0799 11.6177 17.1211 11.521 17.1211 11.4203C17.1211 11.3195 17.0799 11.2228 17.0067 11.1516C16.9334 11.0803 16.8341 11.0403 16.7305 11.0403C16.6269 11.0403 16.5275 11.0002 16.4543 10.929C16.381 10.8577 16.3398 10.761 16.3398 10.6603C16.3398 10.5595 16.381 10.4628 16.4543 10.3916C16.5275 10.3203 16.6269 10.2803 16.7305 10.2803Z" fill="#553C9A"/>
<path d="M2.76563 16.7402H1.98438C1.88077 16.7402 1.78142 16.7803 1.70816 16.8515C1.63491 16.9228 1.59375 17.0195 1.59375 17.1202C1.59375 17.221 1.63491 17.3177 1.70816 17.3889C1.78142 17.4602 1.88077 17.5002 1.98438 17.5002H2.76563C2.86923 17.5002 2.96858 17.4602 3.04184 17.3889C3.1151 17.3177 3.15625 17.221 3.15625 17.1202C3.15625 17.0195 3.1151 16.9228 3.04184 16.8515C2.96858 16.7803 2.86923 16.7402 2.76563 16.7402Z" fill="#553C9A"/>
<path d="M20.7344 17.5002H21.5156C21.6192 17.5002 21.7186 17.4602 21.7918 17.3889C21.8651 17.3177 21.9063 17.221 21.9063 17.1202C21.9063 17.0195 21.8651 16.9228 21.7918 16.8515C21.7186 16.7803 21.6192 16.7402 21.5156 16.7402H20.7344C20.6308 16.7402 20.5314 16.7803 20.4582 16.8515C20.3849 16.9228 20.3438 17.0195 20.3438 17.1202C20.3438 17.221 20.3849 17.3177 20.4582 17.3889C20.5314 17.4602 20.6308 17.5002 20.7344 17.5002Z" fill="#553C9A"/>
<path d="M12.1406 16.7402H11.3594C11.2558 16.7402 11.1564 16.7803 11.0832 16.8515C11.0099 16.9228 10.9688 17.0195 10.9688 17.1202C10.9688 17.221 11.0099 17.3177 11.0832 17.3889C11.1564 17.4602 11.2558 17.5002 11.3594 17.5002H12.1406C12.2442 17.5002 12.3436 17.4602 12.4168 17.3889C12.4901 17.3177 12.5312 17.221 12.5312 17.1202C12.5312 17.0195 12.4901 16.9228 12.4168 16.8515C12.3436 16.7803 12.2442 16.7402 12.1406 16.7402Z" fill="#553C9A"/>
<path d="M9.24021 14.8402C9.31748 14.8402 9.393 14.8179 9.45724 14.7762C9.52148 14.7344 9.57155 14.6751 9.60112 14.6056C9.63069 14.5362 9.63842 14.4598 9.62335 14.3861C9.60828 14.3124 9.57107 14.2447 9.51644 14.1915C9.4606 14.1373 9.42374 14.0673 9.4111 13.9916C9.39846 13.9158 9.41068 13.8381 9.44603 13.7695L9.58958 13.4902C9.63496 13.4001 9.64193 13.2963 9.60896 13.2013C9.57599 13.1063 9.50575 13.0278 9.41357 12.983C9.32138 12.9382 9.2147 12.9306 9.11679 12.9619C9.01888 12.9932 8.93767 13.0609 8.89085 13.1503L8.74705 13.4295C8.63822 13.6407 8.60059 13.88 8.6395 14.1132C8.67841 14.3465 8.79188 14.5619 8.9638 14.7288C9.00005 14.7642 9.04313 14.7922 9.09057 14.8113C9.13801 14.8305 9.18886 14.8403 9.24021 14.8402Z" fill="#553C9A"/>
</svg>
