<svg width="26" height="26" viewBox="0 0 26 26" fill="none" xmlns="http://www.w3.org/2000/svg">
<path fill-rule="evenodd" clip-rule="evenodd" d="M22.75 13.0798C22.75 15.6598 21.6964 18.1342 19.8211 19.9585C17.9457 21.7829 15.4022 22.8078 12.75 22.8078C10.0978 22.8078 7.5543 21.7829 5.67893 19.9585C3.80357 18.1342 2.75 15.6598 2.75 13.0798C2.75 10.4998 3.80357 8.02543 5.67893 6.20107C7.5543 4.37672 10.0978 3.35181 12.75 3.35181C15.4022 3.35181 17.9457 4.37672 19.8211 6.20107C21.6964 8.02543 22.75 10.4998 22.75 13.0798ZM15.25 9.43181C15.25 10.0768 14.9866 10.6954 14.5178 11.1515C14.0489 11.6076 13.413 11.8638 12.75 11.8638C12.087 11.8638 11.4511 11.6076 10.9822 11.1515C10.5134 10.6954 10.25 10.0768 10.25 9.43181C10.25 8.7868 10.5134 8.16821 10.9822 7.71212C11.4511 7.25603 12.087 6.99981 12.75 6.99981C13.413 6.99981 14.0489 7.25603 14.5178 7.71212C14.9866 8.16821 15.25 8.7868 15.25 9.43181ZM12.75 14.2958C11.5533 14.2956 10.3816 14.6296 9.37427 15.2582C8.36694 15.8867 7.5663 16.7834 7.0675 17.8417C7.77085 18.6377 8.64284 19.2763 9.62368 19.7137C10.6045 20.1511 11.671 20.377 12.75 20.3758C13.829 20.377 14.8955 20.1511 15.8763 19.7137C16.8572 19.2763 17.7292 18.6377 18.4325 17.8417C17.9337 16.7834 17.1331 15.8867 16.1257 15.2582C15.1184 14.6296 13.9467 14.2956 12.75 14.2958Z" fill="#6B46C1"/>
</svg>
