<svg width="48" height="48" viewBox="0 0 48 48" fill="none" xmlns="http://www.w3.org/2000/svg">
<path d="M45.5922 27.0993V43.9954C45.5922 46.2005 43.7982 47.9945 41.5931 47.9945H6.40128C4.19619 47.9945 2.40221 46.2005 2.40221 43.9954V27.0993C2.40221 26.6576 2.76033 26.2995 3.20202 26.2995C3.64372 26.2995 4.00184 26.6576 4.00184 27.0993V43.9954C4.00184 45.3185 5.07819 46.3949 6.40128 46.3949H15.0993V32.898C15.0993 30.6929 16.8933 28.8989 19.0983 28.8989H28.8961C31.1012 28.8989 32.8952 30.6929 32.8952 32.898V43.1956C32.8952 43.6373 32.537 43.9954 32.0953 43.9954C31.6536 43.9954 31.2955 43.6373 31.2955 43.1956V32.898C31.2955 31.575 30.2191 30.4986 28.8961 30.4986H19.0983C17.7754 30.4986 16.6989 31.575 16.6989 32.898V46.3949H23.1974V33.7978C23.1974 33.3561 23.5555 32.998 23.9972 32.998C24.4389 32.998 24.797 33.3561 24.797 33.7978V46.3949H41.5931C42.9161 46.3949 43.9926 45.3185 43.9926 43.9954V27.0993C43.9926 26.6576 44.3507 26.2995 44.7924 26.2995C45.2341 26.2995 45.5922 26.6576 45.5922 27.0993ZM5.20156 12.8027C5.20156 13.2444 5.55968 13.6025 6.00138 13.6025C49.5181 13.6025 47.3605 13.6803 47.6784 13.4364C47.8446 13.3085 47.9533 13.1241 47.9831 12.9133C48.0277 12.5919 48.3147 13.3823 42.7269 0.487404C42.6 0.194871 42.3118 0.00561523 41.9929 0.00561523H6.00128C5.68255 0.00561523 5.39412 0.194971 5.26745 0.487404L0.0686475 12.4846C-0.0232312 12.6968 0.00266279 12.3601 0.00266279 17.7647C0.00846145 21.4024 2.96848 24.3619 6.60114 24.3619C9.09846 24.3619 11.2779 22.9632 12.3981 20.9071C14.9001 25.505 21.4905 25.5101 23.9971 20.9102C26.5017 25.5064 33.0892 25.5074 35.5944 20.9102C36.7139 22.9645 38.8935 24.3619 41.3931 24.3619C45.0315 24.3619 47.9916 21.4019 47.9916 17.7634C47.9916 17.3217 47.6334 16.9636 47.1917 16.9636C46.75 16.9636 46.3919 17.3217 46.3919 17.7634C46.3919 20.5198 44.1494 22.7623 41.3931 22.7623C38.6367 22.7623 36.3942 20.5198 36.3942 17.7634C36.3942 17.3217 36.0361 16.9636 35.5944 16.9636C35.1527 16.9636 34.7946 17.3217 34.7946 17.7634C34.7946 20.5198 32.5521 22.7623 29.7958 22.7623C27.0394 22.7623 24.7969 20.5198 24.7969 17.7634C24.7969 17.3217 24.4388 16.9636 23.9971 16.9636C23.5554 16.9636 23.1973 17.3217 23.1973 17.7634C23.1973 20.5198 20.9548 22.7623 18.1985 22.7623C15.5034 22.7623 13.1996 20.5964 13.1996 17.7234C13.1996 17.2817 12.8415 16.9236 12.3998 16.9236C11.9581 16.9236 11.6 17.2817 11.6 17.7234C11.6 20.5721 9.31061 22.7623 6.60114 22.7623C3.84917 22.7623 1.60659 20.5192 1.60229 17.7634V12.9684L6.52645 1.60525H41.468L45.9735 12.0028H6.00138C5.55958 12.0028 5.20156 12.3609 5.20156 12.8027Z" fill="#B794F4"/>
</svg>
