<svg width="26" height="25" viewBox="0 0 26 25" fill="none" xmlns="http://www.w3.org/2000/svg">
<g clip-path="url(#clip0)">
<path d="M21.6043 4.14672C20.9965 3.5555 20.337 3.03311 19.6362 2.5824L18.7134 4.13713C19.8564 4.88756 20.8428 5.84713 21.6142 6.95893L23.2124 6.0613C22.749 5.37955 22.212 4.73794 21.6043 4.14672Z" fill="#553C9A"/>
<path d="M17.4458 3.42304L18.3691 1.86741C16.86 1.1289 15.2039 0.696045 13.4824 0.600098V2.3889C14.8961 2.48242 16.235 2.84446 17.4458 3.42304Z" fill="#553C9A"/>
<path d="M8.05425 3.42304C9.26505 2.84441 10.604 2.48242 12.0176 2.3889V0.600098C10.2961 0.696045 8.64002 1.1289 7.13098 1.86741L8.05425 3.42304Z" fill="#553C9A"/>
<path d="M17.4458 22.0972C16.235 22.6758 14.8961 23.0378 13.4824 23.1313V24.9201C15.2039 24.8242 16.86 24.3913 18.3691 23.6528L17.4458 22.0972Z" fill="#553C9A"/>
<path d="M3.88592 6.95893C4.65734 5.84708 5.64374 4.88751 6.78667 4.13713L5.86395 2.5824C5.16308 3.03316 4.50358 3.55555 3.89583 4.14672C3.28808 4.73789 2.75109 5.3795 2.28772 6.0613L3.88592 6.95893Z" fill="#553C9A"/>
<path d="M12.75 3.78894C7.66501 3.78894 3.52802 7.81341 3.52802 12.7601C3.52802 17.7067 7.66501 21.7312 12.75 21.7312C17.835 21.7312 21.972 17.7067 21.972 12.7601C21.972 7.81341 17.835 3.78894 12.75 3.78894ZM12.4253 12.0476H13.0747C14.7219 12.0476 16.062 13.3512 16.062 14.9536C16.062 16.4214 14.9373 17.6378 13.4824 17.8318V19.5566H12.0176V17.8318C10.5627 17.6377 9.43806 16.4214 9.43806 14.9536H10.9029C10.9029 15.7703 11.5858 16.4347 12.4253 16.4347H13.0747C13.9142 16.4347 14.5972 15.7703 14.5972 14.9536C14.5972 14.1369 13.9143 13.4726 13.0747 13.4726H12.4253C10.7782 13.4726 9.43806 12.169 9.43806 10.5665C9.43806 9.09873 10.5627 7.88238 12.0176 7.6883V5.96353H13.4824V7.6883C14.9373 7.88238 16.062 9.09873 16.062 10.5665H14.5972C14.5972 9.74989 13.9143 9.08548 13.0747 9.08548H12.4253C11.5858 9.08548 10.9029 9.74984 10.9029 10.5665C10.9029 11.3832 11.5858 12.0476 12.4253 12.0476Z" fill="#553C9A"/>
<path d="M5.86388 22.9378L6.78661 21.3831C5.64367 20.6327 4.65727 19.6731 3.88586 18.5613L2.28766 19.4589C2.75102 20.1407 3.28802 20.7823 3.89577 21.3735C4.50352 21.9647 5.16302 22.4871 5.86388 22.9378Z" fill="#553C9A"/>
<path d="M3.15187 8.1921L1.55275 7.29395C0.793589 8.76199 0.34863 10.373 0.25 12.0477H2.08877C2.18496 10.6725 2.55707 9.36997 3.15187 8.1921Z" fill="#553C9A"/>
<path d="M22.3481 8.1921C22.943 9.36997 23.3151 10.6725 23.4112 12.0477H25.25C25.1514 10.373 24.7064 8.76194 23.9473 7.29395L22.3481 8.1921Z" fill="#553C9A"/>
<path d="M21.6142 18.5613C20.8427 19.6731 19.8563 20.6327 18.7134 21.3831L19.6362 22.9378C20.337 22.487 20.9965 21.9647 21.6043 21.3735C22.212 20.7823 22.749 20.1407 23.2124 19.4589L21.6142 18.5613Z" fill="#553C9A"/>
<path d="M22.3481 17.3281L23.9473 18.2263C24.7064 16.7583 25.1514 15.1472 25.25 13.4725H23.4112C23.3151 14.8477 22.9429 16.1502 22.3481 17.3281Z" fill="#553C9A"/>
<path d="M8.05425 22.0972L7.13098 23.6528C8.64002 24.3913 10.2961 24.8242 12.0176 24.9201V23.1313C10.604 23.0378 9.26505 22.6758 8.05425 22.0972Z" fill="#553C9A"/>
<path d="M3.15187 17.3281C2.55707 16.1502 2.18496 14.8477 2.08882 13.4725H0.25C0.34863 15.1472 0.793589 16.7583 1.55275 18.2263L3.15187 17.3281Z" fill="#553C9A"/>
</g>
<defs>
<clipPath id="clip0">
<rect width="25" height="24.32" fill="white" transform="translate(0.25 0.600098)"/>
</clipPath>
</defs>
</svg>
