<svg width="25" height="25" viewBox="0 0 25 25" fill="none" xmlns="http://www.w3.org/2000/svg">
<path d="M2.49998 17.5C2.26986 17.5 2.08331 17.6865 2.08331 17.9167V18.75C2.08331 18.9801 2.26986 19.1667 2.49998 19.1667C2.7301 19.1667 2.91665 18.9801 2.91665 18.75V17.9167C2.91665 17.6865 2.7301 17.5 2.49998 17.5Z" fill="#553C9A"/>
<path d="M4.16667 17.5C3.93655 17.5 3.75 17.6865 3.75 17.9167V18.75C3.75 18.9801 3.93655 19.1667 4.16667 19.1667C4.39679 19.1667 4.58333 18.9801 4.58333 18.75V17.9167C4.58333 17.6865 4.39679 17.5 4.16667 17.5Z" fill="#553C9A"/>
<path d="M2.49998 20C2.26986 20 2.08331 20.1865 2.08331 20.4167V21.25C2.08331 21.4801 2.26986 21.6667 2.49998 21.6667C2.7301 21.6667 2.91665 21.4801 2.91665 21.25V20.4167C2.91665 20.1865 2.7301 20 2.49998 20Z" fill="#553C9A"/>
<path d="M4.16667 20C3.93655 20 3.75 20.1865 3.75 20.4167V21.25C3.75 21.4801 3.93655 21.6667 4.16667 21.6667C4.39679 21.6667 4.58333 21.4801 4.58333 21.25V20.4167C4.58333 20.1865 4.39679 20 4.16667 20Z" fill="#553C9A"/>
<path d="M20.8334 19.1667C21.0635 19.1667 21.25 18.9801 21.25 18.75V17.9167C21.25 17.6865 21.0635 17.5 20.8334 17.5C20.6032 17.5 20.4167 17.6865 20.4167 17.9167V18.75C20.4167 18.9801 20.6032 19.1667 20.8334 19.1667Z" fill="#553C9A"/>
<path d="M22.5 19.1667C22.7301 19.1667 22.9166 18.9801 22.9166 18.75V17.9167C22.9166 17.6865 22.7301 17.5 22.5 17.5C22.2699 17.5 22.0833 17.6865 22.0833 17.9167V18.75C22.0833 18.9801 22.2699 19.1667 22.5 19.1667Z" fill="#553C9A"/>
<path d="M20.8334 21.6667C21.0635 21.6667 21.25 21.4801 21.25 21.25V20.4167C21.25 20.1865 21.0635 20 20.8334 20C20.6032 20 20.4167 20.1865 20.4167 20.4167V21.25C20.4167 21.4801 20.6032 21.6667 20.8334 21.6667Z" fill="#553C9A"/>
<path d="M22.5 21.6667C22.7301 21.6667 22.9166 21.4801 22.9166 21.25V20.4167C22.9166 20.1865 22.7301 20 22.5 20C22.2699 20 22.0833 20.1865 22.0833 20.4167V21.25C22.0833 21.4801 22.2699 21.6667 22.5 21.6667Z" fill="#553C9A"/>
<path d="M24.5833 22.6158V16.25C24.5833 15.7898 24.2102 15.4167 23.75 15.4167H19.1667V15C19.1667 14.3096 18.607 13.75 17.9167 13.75H17.4825C17.2754 11.3197 15.347 9.39243 12.9167 9.18667V5.41667C12.9167 5.18655 12.7301 5 12.5 5C12.2699 5 12.0833 5.18655 12.0833 5.41667V5.54458L9.58333 6.48083C9.33206 6.5749 9.16555 6.81503 9.16555 7.08333C9.16555 7.35164 9.33206 7.59177 9.58333 7.68583L12.0833 8.62208V9.18667C9.65296 9.39243 7.7246 11.3197 7.5175 13.75H7.08333C6.39298 13.75 5.83333 14.3096 5.83333 15V15.4167H1.25C0.789763 15.4167 0.416667 15.7898 0.416667 16.25V22.6158C0.159687 22.7635 0.00089375 23.0369 0 23.3333V24.1667C0 24.6269 0.373096 25 0.833333 25H24.1667C24.6269 25 25 24.6269 25 24.1667V23.3333C24.9991 23.0369 24.8403 22.7635 24.5833 22.6158ZM23.75 22.5H19.5833V18.35C19.5833 17.9425 19.3845 17.5606 19.0508 17.3267L17.515 16.25H23.75V22.5ZM17.5 22.5V19.1667C17.5 18.4763 16.9404 17.9167 16.25 17.9167C15.5596 17.9167 15 18.4763 15 19.1667V22.5H13.75V18.3333C13.75 17.643 13.1904 17.0833 12.5 17.0833C11.8096 17.0833 11.25 17.643 11.25 18.3333V22.5H10V19.1667C10 18.4763 9.44036 17.9167 8.75 17.9167C8.05964 17.9167 7.5 18.4763 7.5 19.1667V22.5H6.25V18.35C6.24998 18.2141 6.31623 18.0868 6.4275 18.0087L12.4967 13.75L18.5721 18.0087C18.6835 18.0867 18.7499 18.214 18.75 18.35V22.5H17.5ZM16.6667 22.5H15.8333V19.1667C15.8333 18.9365 16.0199 18.75 16.25 18.75C16.4801 18.75 16.6667 18.9365 16.6667 19.1667V22.5ZM12.9167 22.5H12.0833V18.3333C12.0833 18.1032 12.2699 17.9167 12.5 17.9167C12.7301 17.9167 12.9167 18.1032 12.9167 18.3333V22.5ZM9.16667 22.5H8.33333V19.1667C8.33333 18.9365 8.51988 18.75 8.75 18.75C8.98012 18.75 9.16667 18.9365 9.16667 19.1667V22.5ZM10.3517 7.08333L12.0833 6.43458V7.73208L10.3517 7.08333ZM6.66667 15C6.66667 14.7699 6.85321 14.5833 7.08333 14.5833H8.75C8.98012 14.5833 9.16667 14.3968 9.16667 14.1667C9.16667 13.9365 8.98012 13.75 8.75 13.75H8.35458C8.56832 11.6207 10.3604 9.99948 12.5004 9.99948C14.6405 9.99948 16.4325 11.6207 16.6462 13.75H16.25C16.0199 13.75 15.8333 13.9365 15.8333 14.1667C15.8333 14.3968 16.0199 14.5833 16.25 14.5833H17.9167C18.1468 14.5833 18.3333 14.7699 18.3333 15V15.4167H16.3267L12.9754 13.0671C12.6896 12.8685 12.3104 12.8685 12.0246 13.0671L8.67333 15.4167H6.66667V15ZM1.25 16.25H7.48458L5.94875 17.3267C5.61554 17.561 5.41707 17.9427 5.41667 18.35V22.5H1.25V16.25ZM0.833333 24.1667V23.3333H24.1667V24.1667H0.833333Z" fill="#553C9A"/>
<path d="M23.75 0H15.4167C14.7263 0 14.1667 0.559644 14.1667 1.25V7.08333C14.1667 7.77369 14.7263 8.33333 15.4167 8.33333H16.6667V9.64583C16.665 9.94707 16.8409 10.221 17.1154 10.345C17.3897 10.4733 17.7137 10.4279 17.9421 10.2292L20.1542 8.33333H23.75C24.4404 8.33333 25 7.77369 25 7.08333V1.25C25 0.559644 24.4404 0 23.75 0ZM24.1667 7.08333C24.1667 7.31345 23.9801 7.5 23.75 7.5H19.1667C18.9366 7.5 18.75 7.68655 18.75 7.91667C18.7516 8.0604 18.8285 8.19275 18.9525 8.26542L17.5 9.51V8.33333C17.7301 8.33333 17.9167 8.14678 17.9167 7.91667C17.9167 7.68655 17.7301 7.5 17.5 7.5H15.4167C15.1866 7.5 15 7.31345 15 7.08333V1.25C15 1.01988 15.1866 0.833333 15.4167 0.833333H23.75C23.9801 0.833333 24.1667 1.01988 24.1667 1.25V7.08333Z" fill="#553C9A"/>
<path d="M22.9166 2.08337H16.25C16.0199 2.08337 15.8333 2.26992 15.8333 2.50004C15.8333 2.73016 16.0199 2.91671 16.25 2.91671H22.9166C23.1468 2.91671 23.3333 2.73016 23.3333 2.50004C23.3333 2.26992 23.1468 2.08337 22.9166 2.08337Z" fill="#553C9A"/>
<path d="M22.9167 3.75H18.3334C18.1032 3.75 17.9167 3.93655 17.9167 4.16667C17.9167 4.39679 18.1032 4.58333 18.3334 4.58333H22.9167C23.1468 4.58333 23.3334 4.39679 23.3334 4.16667C23.3334 3.93655 23.1468 3.75 22.9167 3.75Z" fill="#553C9A"/>
<path d="M16.25 4.58333H16.6666C16.8968 4.58333 17.0833 4.39679 17.0833 4.16667C17.0833 3.93655 16.8968 3.75 16.6666 3.75H16.25C16.0199 3.75 15.8333 3.93655 15.8333 4.16667C15.8333 4.39679 16.0199 4.58333 16.25 4.58333Z" fill="#553C9A"/>
<path d="M20.4166 5.41663H16.25C16.0199 5.41663 15.8333 5.60317 15.8333 5.83329C15.8333 6.06341 16.0199 6.24996 16.25 6.24996H20.4166C20.6468 6.24996 20.8333 6.06341 20.8333 5.83329C20.8333 5.60317 20.6468 5.41663 20.4166 5.41663Z" fill="#553C9A"/>
</svg>
