<svg width="26" height="26" viewBox="0 0 26 26" fill="none" xmlns="http://www.w3.org/2000/svg">
<g clip-path="url(#clip0)">
<path d="M14.431 11.7169C14.5193 11.4952 14.489 11.2462 14.3501 11.0506C14.0684 10.6538 13.5265 10.6302 13.1615 10.9679C12.2009 11.8567 11.2533 12.725 10.2975 13.606C10.1132 13.7759 10.0223 14.0067 10.0481 14.2391C10.0737 14.4693 10.2112 14.6734 10.4253 14.7991C10.8816 15.067 11.3414 15.3195 11.7973 15.5729C11.5701 16.0927 11.2907 16.7249 11.0688 17.2831C10.9278 17.6375 11.0893 18.0309 11.4444 18.1981C11.725 18.3303 12.0435 18.3036 12.3379 18.0327C13.2253 17.216 14.2999 16.2273 15.2027 15.3941C15.3891 15.222 15.4797 14.9898 15.4511 14.7568C15.4223 14.5212 15.2757 14.3134 15.0489 14.1865C14.5998 13.9352 14.1518 13.682 13.7033 13.4295C13.9479 12.8698 14.2008 12.2946 14.431 11.7169ZM12.9228 13.3947C12.8351 13.5961 12.9084 13.8057 13.1053 13.9163C13.6316 14.2118 14.1567 14.5097 14.6837 14.8041C14.7375 14.8342 14.7393 14.8396 14.6985 14.8772C13.6998 15.7983 11.8682 17.5147 11.772 17.5604C11.7649 17.5577 11.7473 17.5513 11.7517 17.5401C12.0074 16.8904 12.318 16.2041 12.578 15.605C12.6505 15.4377 12.6218 15.2119 12.3938 15.0843C11.8646 14.788 11.3298 14.4976 10.8038 14.1891C10.7646 14.1662 10.7664 14.1554 10.8013 14.1232C11.8219 13.1826 13.6313 11.496 13.7214 11.4414C13.7407 11.4454 13.7479 11.4556 13.748 11.4596C13.4893 12.108 13.2 12.7577 12.9228 13.3947ZM21.2787 19.7493H22.1529C23.0554 19.7493 23.8342 19.0942 23.9645 18.2258C23.967 18.2227 25.2461 9.70553 25.2466 9.70221C25.2486 9.68692 25.2501 7.51807 25.2501 7.51807C25.2501 7.05974 24.8668 6.68682 24.3956 6.68682H22.7617L20.7006 4.68184C20.4148 4.40359 20.0349 4.25035 19.6307 4.25035C19.3274 4.25035 19.0377 4.33661 18.7911 4.49726L17.2601 3.00827C16.6703 2.43447 15.7105 2.43438 15.1207 3.00822L13.5897 4.49716C13.3433 4.33656 13.0536 4.2503 12.7502 4.2503C12.4469 4.2503 12.1572 4.33656 11.9107 4.49716L10.3798 3.00827C9.78999 2.43447 8.83023 2.43438 8.24038 3.00822L6.70933 4.49726C6.46274 4.33666 6.17305 4.25035 5.86973 4.25035C5.46553 4.25035 5.08555 4.40359 4.79995 4.68175L2.73877 6.68686H1.10449C0.63335 6.68686 0.25 7.05979 0.25 7.51811V9.65561C0.249902 9.70577 0.512695 11.4276 0.520557 11.4798C0.549902 11.6744 0.735938 11.8093 0.935938 11.7806C1.13608 11.7521 1.27456 11.5712 1.24526 11.3765L1.03994 10.0118H24.4601L23.2397 18.1228C23.1616 18.6438 22.6943 19.0368 22.1529 19.0368H21.2584C21.048 17.799 19.9405 16.8518 18.6094 16.8518C17.2783 16.8518 16.1709 17.799 15.9605 19.0368H9.5396C9.3292 17.799 8.22173 16.8518 6.89063 16.8518C5.55952 16.8518 4.45205 17.799 4.24165 19.0368H3.34717C2.80571 19.0368 2.33848 18.6439 2.2603 18.1226L1.43818 12.6587C1.40889 12.464 1.22329 12.3294 1.0228 12.3578C0.822656 12.3863 0.68418 12.5672 0.713477 12.7619L1.53555 18.2256C1.66582 19.0942 2.44463 19.7493 3.34717 19.7493H4.22139C4.29243 20.383 4.59775 20.949 5.05049 21.3643H0.90918C0.545703 21.3643 0.25 21.652 0.25 22.0056V22.8606C0.25 23.2142 0.545703 23.5018 0.90918 23.5018H24.5908C24.9543 23.5018 25.25 23.2142 25.25 22.8606V22.0056C25.25 21.652 24.9543 21.3643 24.5908 21.3643H20.4496C20.9023 20.949 21.2076 20.383 21.2787 19.7493ZM19.0783 5.18553C19.2259 5.04194 19.4221 4.96285 19.6306 4.96285C19.8391 4.96285 20.035 5.04189 20.1825 5.18553L21.7258 6.68686H17.5351L19.0783 5.18553ZM15.6383 3.51206C15.9425 3.21609 16.4377 3.21609 16.742 3.51211L18.2525 4.98114L16.4992 6.68682H15.8812L14.1278 4.98114L15.6383 3.51206ZM12.1489 5.23317C12.1489 5.23313 12.149 5.23303 12.1491 5.23298C12.1492 5.23293 12.1493 5.23284 12.1493 5.23275L12.198 5.18534C12.3455 5.04184 12.5415 4.9628 12.7501 4.9628C12.9586 4.9628 13.1546 5.04184 13.3021 5.18548L14.8454 6.68682H10.6547L12.1489 5.23317ZM8.75801 3.51206C9.06221 3.21609 9.55737 3.21609 9.86172 3.51211L11.3722 4.98114L9.61885 6.68682H9.00088L7.24746 4.98114L8.75801 3.51206ZM5.31768 5.18534C5.46509 5.04184 5.66099 4.9628 5.86943 4.9628C6.07798 4.9628 6.27412 5.04189 6.42173 5.18548L7.96504 6.68682H3.77427L5.31768 5.18534ZM0.982422 9.29932V7.51807C0.982422 7.45261 1.03716 7.39932 1.10449 7.39932H24.3955C24.4628 7.39932 24.5176 7.45261 24.5176 7.51807V9.29932H0.982422ZM4.9375 19.4643C4.9375 18.4167 5.81367 17.5643 6.89063 17.5643C7.96758 17.5643 8.84375 18.4167 8.84375 19.4643C8.84375 20.512 7.96758 21.3643 6.89063 21.3643C5.81367 21.3643 4.9375 20.512 4.9375 19.4643ZM24.5176 22.0768V22.7893H0.982422V22.0768H14.0799C14.2822 22.0768 14.4461 21.9173 14.4461 21.7206C14.4461 21.5238 14.2822 21.3643 14.0799 21.3643H8.73081C9.18355 20.949 9.48887 20.383 9.55991 19.7493H15.9401C16.0112 20.383 16.3165 20.949 16.7692 21.3643H15.5448C15.3425 21.3643 15.1786 21.5238 15.1786 21.7206C15.1786 21.9173 15.3425 22.0768 15.5448 22.0768H24.5176ZM18.6094 21.3643C17.5324 21.3643 16.6563 20.512 16.6563 19.4643C16.6563 18.4167 17.5324 17.5643 18.6094 17.5643C19.6863 17.5643 20.5625 18.4167 20.5625 19.4643C20.5625 20.512 19.6863 21.3643 18.6094 21.3643Z" fill="#553C9A"/>
</g>
<defs>
<clipPath id="clip0">
<rect width="25" height="24.32" fill="white" transform="translate(0.25 0.879883)"/>
</clipPath>
</defs>
</svg>
