<svg width="48" height="48" viewBox="0 0 48 48" fill="none" xmlns="http://www.w3.org/2000/svg">
<path d="M24 37.8281C25.2944 37.8281 26.3438 36.7788 26.3438 35.4844C26.3438 34.19 25.2944 33.1406 24 33.1406C22.7056 33.1406 21.6562 34.19 21.6562 35.4844C21.6562 36.7788 22.7056 37.8281 24 37.8281Z" fill="#B794F4"/>
<path d="M24 0C10.7359 0 0 10.7341 0 24C0 37.2641 10.7341 48 24 48C37.2641 48 48 37.2659 48 24C48 10.7359 37.2659 0 24 0ZM24 46C12.8084 46 2 35.1931 2 24C2 12.8084 12.8069 2 24 2C35.1916 2 46 12.8069 46 24C46 35.1916 35.1931 46 24 46Z" fill="#B794F4"/>
<path d="M24 12.0469C19.8645 12.0469 16.5 15.4114 16.5 19.5469C16.5 20.5824 17.3394 21.4219 18.375 21.4219C19.4106 21.4219 20.25 20.5824 20.25 19.5469C20.25 17.4791 21.9323 15.7969 24 15.7969C26.0677 15.7969 27.75 17.4791 27.75 19.5469C27.75 21.6146 26.0677 23.2969 24 23.2969C22.9644 23.2969 22.125 24.1363 22.125 25.1719V29.8594C22.125 30.8949 22.9644 31.7344 24 31.7344C25.0356 31.7344 25.875 30.8949 25.875 29.8594V26.8096C29.1062 25.9749 31.5 23.0352 31.5 19.5469C31.5 15.4114 28.1355 12.0469 24 12.0469Z" fill="#B794F4"/>
</svg>
