<svg width="25" height="25" viewBox="0 0 25 25" fill="none" xmlns="http://www.w3.org/2000/svg">
<path d="M0.469451 6.9058C0.460178 6.95521 0.454951 7.00528 0.453265 7.05535V8.08379C0.454614 8.50763 0.723203 8.88653 1.12836 9.03541V10.5487C1.13022 11.0553 1.53673 11.4717 2.053 11.4957V20.238C1.53673 20.2621 1.13022 20.6785 1.12836 21.185V22.6938C0.72236 22.8466 0.453939 23.2283 0.453265 23.6543V24.6603C0.453265 24.8478 0.60872 25 0.800088 25H24.1844C24.3758 25 24.5311 24.8478 24.5311 24.6603V23.6543C24.5304 23.2281 24.262 22.8464 23.8562 22.6938V21.176C23.8543 20.6694 23.4476 20.253 22.9315 20.229V11.4957C23.4476 11.4717 23.8543 11.0553 23.8562 10.5487V9.03541C24.2611 8.88653 24.5297 8.50763 24.5311 8.08379V7.06212C24.5296 7.01205 24.5242 6.96198 24.5149 6.91258C24.6892 6.98826 24.8931 6.91126 24.9703 6.7404C25.0475 6.56971 24.969 6.36993 24.7948 6.29409L12.6518 0.0392857C12.5504 -0.0130952 12.4294 -0.0130952 12.328 0.0392857L0.185181 6.28731C0.0157315 6.37505 -0.0491819 6.58045 0.0400108 6.74651C0.121616 6.8982 0.305734 6.96661 0.469451 6.9058ZM1.82184 9.62432V9.10101H5.82085V9.61986L1.82184 9.62432ZM10.7261 11.498V20.238C10.2098 20.2621 9.80333 20.6785 9.80147 21.185V22.6303H6.5096V21.185C6.50775 20.6785 6.10124 20.2621 5.58497 20.238V11.4957C6.10124 11.4717 6.50775 11.0553 6.5096 10.5487V9.10101H9.79675V10.5465C9.79759 11.054 10.2044 11.4714 10.7216 11.4957L10.7261 11.498ZM10.4949 9.62432V9.10101H14.4941V9.61986L10.4949 9.62432ZM19.3994 11.498V20.238C18.8831 20.2621 18.4764 20.6785 18.4746 21.185V22.6303H15.1829V21.185C15.181 20.6785 14.7743 20.2621 14.2582 20.238V11.4957C14.7743 11.4717 15.181 11.0553 15.1829 10.5487V9.10101H18.47V10.5465C18.4707 11.054 18.8775 11.4714 19.3947 11.4957L19.3994 11.498ZM19.1682 9.62432V9.10101H23.1672V9.61986L19.1682 9.62432ZM23.1672 22.1116V22.6303H19.1635V22.1116H23.1672ZM14.4941 22.1116V22.6303H10.4904V22.1116H14.4941ZM11.0682 10.8228H10.7678C10.6145 10.8228 10.4904 10.7012 10.4904 10.551V10.3039H14.4894V10.551C14.4894 10.7012 14.3653 10.8228 14.212 10.8228H11.0682ZM13.5671 11.5024V20.2335H11.415V11.5024H13.5671ZM11.0682 20.9131H14.212C14.3653 20.9131 14.4894 21.0348 14.4894 21.185V21.432H10.4904V21.185C10.4904 21.0348 10.6145 20.9131 10.7678 20.9131H11.0682ZM5.81629 22.1116V22.6303H1.81712V22.1116H5.81629ZM1.81712 10.5578V10.3039H5.81629V10.551C5.81629 10.7012 5.6922 10.8228 5.53877 10.8228H2.08757C1.93616 10.8192 1.81577 10.6971 1.81712 10.5487V10.5578ZM4.89166 11.5092V20.2335H2.74176V11.5024L4.89166 11.5092ZM1.81712 21.1919C1.81712 21.0415 1.94122 20.9199 2.09448 20.9199H5.53877C5.6922 20.9199 5.81629 21.0415 5.81629 21.1919V21.4388H1.81712V21.1919ZM23.8376 23.668V24.3339H1.14219V23.668C1.14219 23.474 1.30253 23.3167 1.50048 23.3167H23.4793C23.6744 23.3167 23.8339 23.4699 23.8376 23.6611V23.668ZM23.1627 21.1919V21.4388H19.1635V21.1919C19.1635 21.0415 19.2876 20.9199 19.4409 20.9199H22.8922C23.0401 20.9235 23.159 21.04 23.1627 21.185V21.1919ZM20.0881 20.2403V11.5024H22.2402V20.2335L20.0881 20.2403ZM23.1627 10.5578C23.1627 10.708 23.0386 10.8296 22.8853 10.8296H19.4432C19.29 10.8296 19.1659 10.708 19.1659 10.5578V10.3039H23.1649L23.1627 10.5578ZM12.4899 0.718915L22.8159 6.03813H2.16394L12.4899 0.718915ZM1.14219 7.06212C1.14219 6.87457 1.29748 6.72239 1.48884 6.72239H23.491C23.6823 6.72239 23.8376 6.87457 23.8376 7.06212V8.09073C23.8376 8.27828 23.6823 8.43047 23.491 8.43047H1.48884C1.29748 8.43047 1.14219 8.27828 1.14219 8.09073V7.06212Z" fill="#553C9A"/>
</svg>
